<svg width="847" height="847" viewBox="0 0 847 847" fill="none" xmlns="http://www.w3.org/2000/svg">
<path d="M337.057 456V397.818H376.261V407.96H349.358V421.824H374.244V431.966H349.358V445.858H376.375V456H337.057ZM395.928 412.364L403.939 427.619L412.149 412.364H424.564L411.922 434.182L424.905 456H412.547L403.939 440.915L395.473 456H382.973L395.928 434.182L383.428 412.364H395.928ZM454.962 412.364V421.455H428.683V412.364H454.962ZM434.649 401.909H446.751V442.591C446.751 443.708 446.922 444.58 447.263 445.205C447.604 445.811 448.077 446.237 448.683 446.483C449.308 446.729 450.028 446.852 450.842 446.852C451.411 446.852 451.979 446.805 452.547 446.71C453.115 446.597 453.551 446.511 453.854 446.455L455.757 455.46C455.151 455.65 454.299 455.867 453.2 456.114C452.102 456.379 450.767 456.54 449.195 456.597C446.278 456.71 443.721 456.322 441.524 455.432C439.346 454.542 437.651 453.159 436.439 451.284C435.227 449.409 434.63 447.042 434.649 444.182V401.909ZM462.845 456V412.364H474.578V419.977H475.033C475.828 417.269 477.163 415.223 479.038 413.841C480.913 412.439 483.072 411.739 485.516 411.739C486.122 411.739 486.775 411.777 487.476 411.852C488.177 411.928 488.792 412.032 489.322 412.165V422.903C488.754 422.733 487.968 422.581 486.964 422.449C485.961 422.316 485.042 422.25 484.209 422.25C482.429 422.25 480.838 422.638 479.436 423.415C478.054 424.172 476.955 425.233 476.141 426.597C475.345 427.96 474.947 429.532 474.947 431.312V456H462.845ZM508.023 456.824C505.239 456.824 502.758 456.341 500.58 455.375C498.402 454.39 496.678 452.941 495.409 451.028C494.159 449.097 493.534 446.691 493.534 443.812C493.534 441.388 493.979 439.352 494.869 437.705C495.759 436.057 496.972 434.731 498.506 433.727C500.04 432.723 501.782 431.966 503.733 431.455C505.703 430.943 507.767 430.583 509.926 430.375C512.464 430.11 514.509 429.864 516.062 429.636C517.616 429.39 518.742 429.03 519.443 428.557C520.144 428.083 520.494 427.383 520.494 426.455V426.284C520.494 424.485 519.926 423.093 518.79 422.108C517.672 421.123 516.081 420.631 514.017 420.631C511.839 420.631 510.106 421.114 508.818 422.08C507.53 423.027 506.678 424.22 506.261 425.659L495.068 424.75C495.636 422.098 496.754 419.807 498.42 417.875C500.087 415.924 502.237 414.428 504.869 413.386C507.521 412.326 510.589 411.795 514.074 411.795C516.498 411.795 518.818 412.08 521.034 412.648C523.269 413.216 525.248 414.097 526.972 415.29C528.714 416.483 530.087 418.017 531.091 419.892C532.095 421.748 532.597 423.973 532.597 426.568V456H521.119V449.949H520.778C520.078 451.312 519.14 452.515 517.966 453.557C516.792 454.58 515.381 455.384 513.733 455.972C512.085 456.54 510.182 456.824 508.023 456.824ZM511.489 448.472C513.269 448.472 514.841 448.121 516.205 447.42C517.568 446.701 518.638 445.735 519.415 444.523C520.191 443.311 520.58 441.937 520.58 440.403V435.773C520.201 436.019 519.68 436.246 519.017 436.455C518.373 436.644 517.644 436.824 516.83 436.994C516.015 437.146 515.201 437.288 514.386 437.42C513.572 437.534 512.833 437.638 512.17 437.733C510.75 437.941 509.509 438.273 508.449 438.727C507.388 439.182 506.564 439.797 505.977 440.574C505.39 441.331 505.097 442.278 505.097 443.415C505.097 445.062 505.693 446.322 506.886 447.193C508.098 448.045 509.633 448.472 511.489 448.472ZM561.702 456.852C557.232 456.852 553.387 455.905 550.168 454.011C546.967 452.098 544.505 449.447 542.781 446.057C541.077 442.667 540.224 438.765 540.224 434.352C540.224 429.883 541.086 425.962 542.81 422.591C544.552 419.201 547.024 416.559 550.224 414.665C553.425 412.752 557.232 411.795 561.645 411.795C565.452 411.795 568.785 412.487 571.645 413.869C574.505 415.252 576.768 417.193 578.435 419.693C580.101 422.193 581.02 425.129 581.19 428.5H569.77C569.448 426.322 568.596 424.57 567.213 423.244C565.849 421.9 564.06 421.227 561.844 421.227C559.969 421.227 558.33 421.739 556.929 422.761C555.546 423.765 554.467 425.233 553.69 427.165C552.914 429.097 552.526 431.436 552.526 434.182C552.526 436.966 552.904 439.333 553.662 441.284C554.438 443.235 555.527 444.722 556.929 445.744C558.33 446.767 559.969 447.278 561.844 447.278C563.226 447.278 564.467 446.994 565.565 446.426C566.683 445.858 567.601 445.034 568.321 443.955C569.06 442.856 569.543 441.54 569.77 440.006H581.19C581.001 443.339 580.092 446.275 578.463 448.812C576.853 451.331 574.628 453.301 571.787 454.722C568.946 456.142 565.584 456.852 561.702 456.852ZM612.149 412.364V421.455H585.871V412.364H612.149ZM591.837 401.909H603.939V442.591C603.939 443.708 604.109 444.58 604.45 445.205C604.791 445.811 605.265 446.237 605.871 446.483C606.496 446.729 607.215 446.852 608.03 446.852C608.598 446.852 609.166 446.805 609.734 446.71C610.303 446.597 610.738 446.511 611.041 446.455L612.945 455.46C612.339 455.65 611.486 455.867 610.388 456.114C609.289 456.379 607.954 456.54 606.382 456.597C603.465 456.71 600.909 456.322 598.712 455.432C596.534 454.542 594.839 453.159 593.626 451.284C592.414 449.409 591.818 447.042 591.837 444.182V401.909ZM639.28 456.852C634.867 456.852 631.051 455.915 627.831 454.04C624.63 452.146 622.159 449.513 620.416 446.142C618.674 442.752 617.803 438.822 617.803 434.352C617.803 429.845 618.674 425.905 620.416 422.534C622.159 419.144 624.63 416.511 627.831 414.636C631.051 412.742 634.867 411.795 639.28 411.795C643.693 411.795 647.5 412.742 650.7 414.636C653.92 416.511 656.401 419.144 658.143 422.534C659.886 425.905 660.757 429.845 660.757 434.352C660.757 438.822 659.886 442.752 658.143 446.142C656.401 449.513 653.92 452.146 650.7 454.04C647.5 455.915 643.693 456.852 639.28 456.852ZM639.337 447.477C641.344 447.477 643.02 446.909 644.365 445.773C645.71 444.617 646.723 443.045 647.405 441.057C648.106 439.068 648.456 436.805 648.456 434.267C648.456 431.729 648.106 429.466 647.405 427.477C646.723 425.489 645.71 423.917 644.365 422.761C643.02 421.606 641.344 421.028 639.337 421.028C637.31 421.028 635.606 421.606 634.223 422.761C632.859 423.917 631.827 425.489 631.126 427.477C630.445 429.466 630.104 431.729 630.104 434.267C630.104 436.805 630.445 439.068 631.126 441.057C631.827 443.045 632.859 444.617 634.223 445.773C635.606 446.909 637.31 447.477 639.337 447.477Z" fill="black"/>
<line x1="191" y1="368.529" x2="260.529" y2="368.529" stroke="#246AED" stroke-width="18" stroke-linecap="square"/>
<line x1="191" y1="379" x2="191" y2="448.529" stroke="#246AED" stroke-width="18" stroke-linecap="square"/>
<line x1="291.412" y1="478.86" x2="220" y2="478.86" stroke="black" stroke-width="18" stroke-linecap="square"/>
<line x1="291.412" y1="468.471" x2="291.412" y2="398" stroke="black" stroke-width="18" stroke-linecap="square"/>
</svg>
